<mxfile host="app.diagrams.net" modified="2024-06-15T19:42:20.395Z" agent="Mozilla/5.0 (X11; Ubuntu; Linux x86_64; rv:126.0) Gecko/20100101 Firefox/126.0" etag="EyWL0zic6WbrQzaAbYRY" version="24.4.15" type="github">
  <diagram name="Pagina-1" id="Yk-heJ3Itw1lRSVEGU9b">
    <mxGraphModel dx="1125" dy="-1350" grid="0" gridSize="10" guides="1" tooltips="1" connect="1" arrows="1" fold="1" page="0" pageScale="1" pageWidth="827" pageHeight="1169" math="0" shadow="0">
      <root>
        <mxCell id="0" />
        <mxCell id="1" parent="0" />
        <mxCell id="rcjAeCjAzwwMyP9Yz0Fa-1" value="&lt;div&gt;&lt;font color=&quot;#ffffff&quot;&gt;&lt;b&gt;Server&lt;/b&gt;&lt;/font&gt;&lt;/div&gt;&lt;div&gt;&lt;font color=&quot;#ffffff&quot;&gt;&lt;b&gt;Registrazione&lt;br&gt;&lt;/b&gt;&lt;/font&gt;&lt;/div&gt;" style="html=1;dropTarget=0;whiteSpace=wrap;fillColor=#60A917;" vertex="1" parent="1">
          <mxGeometry x="-311" y="2300" width="180" height="90" as="geometry" />
        </mxCell>
        <mxCell id="rcjAeCjAzwwMyP9Yz0Fa-2" value="" style="shape=module;jettyWidth=8;jettyHeight=4;fillColor=#FFFFFF;" vertex="1" parent="rcjAeCjAzwwMyP9Yz0Fa-1">
          <mxGeometry x="1" width="20" height="20" relative="1" as="geometry">
            <mxPoint x="-27" y="7" as="offset" />
          </mxGeometry>
        </mxCell>
        <mxCell id="rcjAeCjAzwwMyP9Yz0Fa-5" value="&lt;b style=&quot;background-color: rgb(255, 255, 255);&quot;&gt;Log&lt;/b&gt;" style="html=1;dropTarget=0;whiteSpace=wrap;fillColor=#ffffff;" vertex="1" parent="1">
          <mxGeometry x="1890" y="2300" width="180" height="90" as="geometry" />
        </mxCell>
        <mxCell id="rcjAeCjAzwwMyP9Yz0Fa-6" value="" style="shape=module;jettyWidth=8;jettyHeight=4;fillColor=#FFFFFF;" vertex="1" parent="rcjAeCjAzwwMyP9Yz0Fa-5">
          <mxGeometry x="1" width="20" height="20" relative="1" as="geometry">
            <mxPoint x="-27" y="7" as="offset" />
          </mxGeometry>
        </mxCell>
        <mxCell id="rcjAeCjAzwwMyP9Yz0Fa-7" value="&lt;div&gt;&lt;font color=&quot;#ffffff&quot;&gt;&lt;b&gt;Server&lt;/b&gt;&lt;/font&gt;&lt;/div&gt;&lt;div&gt;&lt;font color=&quot;#ffffff&quot;&gt;&lt;b&gt;Amministratore&lt;br&gt;&lt;/b&gt;&lt;/font&gt;&lt;/div&gt;" style="html=1;dropTarget=0;whiteSpace=wrap;fillColor=#60A917;" vertex="1" parent="1">
          <mxGeometry x="932" y="2297" width="180" height="90" as="geometry" />
        </mxCell>
        <mxCell id="rcjAeCjAzwwMyP9Yz0Fa-8" value="" style="shape=module;jettyWidth=8;jettyHeight=4;fillColor=#FFFFFF;" vertex="1" parent="rcjAeCjAzwwMyP9Yz0Fa-7">
          <mxGeometry x="1" width="20" height="20" relative="1" as="geometry">
            <mxPoint x="-27" y="7" as="offset" />
          </mxGeometry>
        </mxCell>
        <mxCell id="rcjAeCjAzwwMyP9Yz0Fa-9" value="&lt;div&gt;&lt;font color=&quot;#ffffff&quot;&gt;&lt;b&gt;Server&lt;br&gt;Utente&lt;br&gt;&lt;/b&gt;&lt;/font&gt;&lt;/div&gt;" style="html=1;dropTarget=0;whiteSpace=wrap;fillColor=#60A917;" vertex="1" parent="1">
          <mxGeometry x="436" y="2300" width="180" height="90" as="geometry" />
        </mxCell>
        <mxCell id="rcjAeCjAzwwMyP9Yz0Fa-10" value="" style="shape=module;jettyWidth=8;jettyHeight=4;fillColor=#FFFFFF;" vertex="1" parent="rcjAeCjAzwwMyP9Yz0Fa-9">
          <mxGeometry x="1" width="20" height="20" relative="1" as="geometry">
            <mxPoint x="-27" y="7" as="offset" />
          </mxGeometry>
        </mxCell>
        <mxCell id="rcjAeCjAzwwMyP9Yz0Fa-11" value="&lt;div&gt;&lt;font color=&quot;#ffffff&quot;&gt;&lt;b&gt;Server&lt;/b&gt;&lt;/font&gt;&lt;/div&gt;&lt;div&gt;&lt;font color=&quot;#ffffff&quot;&gt;&lt;b&gt;Navigazione&lt;br&gt;&lt;/b&gt;&lt;/font&gt;&lt;/div&gt;" style="html=1;dropTarget=0;whiteSpace=wrap;fillColor=#60A917;" vertex="1" parent="1">
          <mxGeometry x="1179" y="2297" width="180" height="90" as="geometry" />
        </mxCell>
        <mxCell id="rcjAeCjAzwwMyP9Yz0Fa-12" value="" style="shape=module;jettyWidth=8;jettyHeight=4;fillColor=#FFFFFF;" vertex="1" parent="rcjAeCjAzwwMyP9Yz0Fa-11">
          <mxGeometry x="1" width="20" height="20" relative="1" as="geometry">
            <mxPoint x="-27" y="7" as="offset" />
          </mxGeometry>
        </mxCell>
        <mxCell id="rcjAeCjAzwwMyP9Yz0Fa-13" value="&lt;div&gt;&lt;font color=&quot;#ffffff&quot;&gt;&lt;b&gt;Server&lt;/b&gt;&lt;/font&gt;&lt;/div&gt;&lt;div&gt;&lt;font color=&quot;#ffffff&quot;&gt;&lt;b&gt;GestorePalestra&lt;br&gt;&lt;/b&gt;&lt;/font&gt;&lt;/div&gt;" style="html=1;dropTarget=0;whiteSpace=wrap;fillColor=#60A917;" vertex="1" parent="1">
          <mxGeometry x="685" y="2297" width="180" height="90" as="geometry" />
        </mxCell>
        <mxCell id="rcjAeCjAzwwMyP9Yz0Fa-14" value="" style="shape=module;jettyWidth=8;jettyHeight=4;fillColor=#FFFFFF;" vertex="1" parent="rcjAeCjAzwwMyP9Yz0Fa-13">
          <mxGeometry x="1" width="20" height="20" relative="1" as="geometry">
            <mxPoint x="-27" y="7" as="offset" />
          </mxGeometry>
        </mxCell>
        <mxCell id="rcjAeCjAzwwMyP9Yz0Fa-15" value="&lt;b&gt;Broker&lt;/b&gt;" style="html=1;dropTarget=0;whiteSpace=wrap;fillColor=#ffffff;" vertex="1" parent="1">
          <mxGeometry x="1618" y="2303" width="180" height="90" as="geometry" />
        </mxCell>
        <mxCell id="rcjAeCjAzwwMyP9Yz0Fa-16" value="" style="shape=module;jettyWidth=8;jettyHeight=4;fillColor=#FFFFFF;" vertex="1" parent="rcjAeCjAzwwMyP9Yz0Fa-15">
          <mxGeometry x="1" width="20" height="20" relative="1" as="geometry">
            <mxPoint x="-27" y="7" as="offset" />
          </mxGeometry>
        </mxCell>
        <mxCell id="rcjAeCjAzwwMyP9Yz0Fa-19" value="&lt;div&gt;&lt;b&gt;Server&lt;/b&gt;&lt;/div&gt;&lt;div&gt;&lt;b&gt;Amministratore&lt;/b&gt;.&lt;b&gt;war&lt;/b&gt;&lt;br&gt;&lt;/div&gt;" style="html=1;dropTarget=0;whiteSpace=wrap;fillColor=#ffffff;" vertex="1" parent="1">
          <mxGeometry x="932" y="2480" width="180" height="90" as="geometry" />
        </mxCell>
        <mxCell id="rcjAeCjAzwwMyP9Yz0Fa-20" value="" style="shape=module;jettyWidth=8;jettyHeight=4;fillColor=#FFFFFF;" vertex="1" parent="rcjAeCjAzwwMyP9Yz0Fa-19">
          <mxGeometry x="1" width="20" height="20" relative="1" as="geometry">
            <mxPoint x="-27" y="7" as="offset" />
          </mxGeometry>
        </mxCell>
        <mxCell id="rcjAeCjAzwwMyP9Yz0Fa-21" value="&lt;div&gt;&lt;b&gt;Server&lt;br&gt;Utente&lt;/b&gt;&lt;b&gt;.war&lt;/b&gt;&lt;/div&gt;" style="html=1;dropTarget=0;whiteSpace=wrap;fillColor=#ffffff;" vertex="1" parent="1">
          <mxGeometry x="436" y="2483" width="180" height="90" as="geometry" />
        </mxCell>
        <mxCell id="rcjAeCjAzwwMyP9Yz0Fa-22" value="" style="shape=module;jettyWidth=8;jettyHeight=4;fillColor=#FFFFFF;" vertex="1" parent="rcjAeCjAzwwMyP9Yz0Fa-21">
          <mxGeometry x="1" width="20" height="20" relative="1" as="geometry">
            <mxPoint x="-27" y="7" as="offset" />
          </mxGeometry>
        </mxCell>
        <mxCell id="rcjAeCjAzwwMyP9Yz0Fa-23" value="&lt;div&gt;&lt;b&gt;Server&lt;/b&gt;&lt;/div&gt;&lt;div&gt;&lt;b&gt;Navigazione.war&lt;br&gt;&lt;/b&gt;&lt;/div&gt;&lt;b&gt;&lt;/b&gt;" style="html=1;dropTarget=0;whiteSpace=wrap;fillColor=#ffffff;" vertex="1" parent="1">
          <mxGeometry x="1179" y="2480" width="180" height="90" as="geometry" />
        </mxCell>
        <mxCell id="rcjAeCjAzwwMyP9Yz0Fa-24" value="" style="shape=module;jettyWidth=8;jettyHeight=4;fillColor=#FFFFFF;" vertex="1" parent="rcjAeCjAzwwMyP9Yz0Fa-23">
          <mxGeometry x="1" width="20" height="20" relative="1" as="geometry">
            <mxPoint x="-27" y="7" as="offset" />
          </mxGeometry>
        </mxCell>
        <mxCell id="rcjAeCjAzwwMyP9Yz0Fa-25" value="&lt;div&gt;&lt;b&gt;Server&lt;/b&gt;&lt;/div&gt;&lt;div&gt;&lt;b&gt;GestorePalestra.war&lt;br&gt;&lt;/b&gt;&lt;/div&gt;" style="html=1;dropTarget=0;whiteSpace=wrap;fillColor=#ffffff;" vertex="1" parent="1">
          <mxGeometry x="685" y="2480" width="180" height="90" as="geometry" />
        </mxCell>
        <mxCell id="rcjAeCjAzwwMyP9Yz0Fa-26" value="" style="shape=module;jettyWidth=8;jettyHeight=4;fillColor=#FFFFFF;" vertex="1" parent="rcjAeCjAzwwMyP9Yz0Fa-25">
          <mxGeometry x="1" width="20" height="20" relative="1" as="geometry">
            <mxPoint x="-27" y="7" as="offset" />
          </mxGeometry>
        </mxCell>
        <mxCell id="rcjAeCjAzwwMyP9Yz0Fa-27" value="&lt;b style=&quot;background-color: rgb(255, 255, 255);&quot;&gt;Log.war&lt;/b&gt;" style="html=1;dropTarget=0;whiteSpace=wrap;fillColor=#ffffff;" vertex="1" parent="1">
          <mxGeometry x="1890" y="2480" width="180" height="90" as="geometry" />
        </mxCell>
        <mxCell id="rcjAeCjAzwwMyP9Yz0Fa-28" value="" style="shape=module;jettyWidth=8;jettyHeight=4;fillColor=#FFFFFF;" vertex="1" parent="rcjAeCjAzwwMyP9Yz0Fa-27">
          <mxGeometry x="1" width="20" height="20" relative="1" as="geometry">
            <mxPoint x="-27" y="7" as="offset" />
          </mxGeometry>
        </mxCell>
        <mxCell id="rcjAeCjAzwwMyP9Yz0Fa-29" value="&lt;b&gt;Broker.war&lt;/b&gt;" style="html=1;dropTarget=0;whiteSpace=wrap;fillColor=#ffffff;" vertex="1" parent="1">
          <mxGeometry x="1618" y="2483" width="180" height="90" as="geometry" />
        </mxCell>
        <mxCell id="rcjAeCjAzwwMyP9Yz0Fa-30" value="" style="shape=module;jettyWidth=8;jettyHeight=4;fillColor=#FFFFFF;" vertex="1" parent="rcjAeCjAzwwMyP9Yz0Fa-29">
          <mxGeometry x="1" width="20" height="20" relative="1" as="geometry">
            <mxPoint x="-27" y="7" as="offset" />
          </mxGeometry>
        </mxCell>
      </root>
    </mxGraphModel>
  </diagram>
</mxfile>
